<svg width="98" height="18" viewBox="0 0 98 18" fill="none" xmlns="http://www.w3.org/2000/svg">
<path d="M10.0338 2.30049C9.88472 1.99463 9.56972 1.79999 9.22378 1.79999C8.87784 1.79999 8.56565 1.99463 8.41378 2.30049L6.60534 5.97914L2.56659 6.56861C2.22909 6.61866 1.94784 6.85223 1.84378 7.17199C1.73972 7.49175 1.82409 7.84488 2.06597 8.08123L4.99659 10.948L4.30472 14.9992C4.24847 15.3329 4.38909 15.6721 4.66753 15.8695C4.94597 16.0669 5.3144 16.092 5.61815 15.9335L9.22659 14.0288L12.835 15.9335C13.1388 16.092 13.5072 16.0697 13.7857 15.8695C14.0641 15.6693 14.2047 15.3329 14.1485 14.9992L13.4538 10.948L16.3844 8.08123C16.6263 7.84488 16.7135 7.49175 16.6066 7.17199C16.4997 6.85223 16.2213 6.61866 15.8838 6.56861L11.8422 5.97914L10.0338 2.30049Z" fill="#FFBC43"/>
<path d="M29.8338 2.30049C29.6847 1.99463 29.3697 1.79999 29.0238 1.79999C28.6778 1.79999 28.3657 1.99463 28.2138 2.30049L26.4053 5.97914L22.3666 6.56861C22.0291 6.61866 21.7478 6.85223 21.6438 7.17199C21.5397 7.49175 21.6241 7.84488 21.866 8.08123L24.7966 10.948L24.1047 14.9992C24.0485 15.3329 24.1891 15.6721 24.4675 15.8695C24.746 16.0669 25.1144 16.092 25.4182 15.9335L29.0266 14.0288L32.635 15.9335C32.9388 16.092 33.3072 16.0697 33.5857 15.8695C33.8641 15.6693 34.0047 15.3329 33.9485 14.9992L33.2538 10.948L36.1844 8.08123C36.4263 7.84488 36.5135 7.49175 36.4066 7.17199C36.2997 6.85223 36.0213 6.61866 35.6838 6.56861L31.6422 5.97914L29.8338 2.30049Z" fill="#FFBC43"/>
<path d="M49.6338 2.30049C49.4847 1.99463 49.1697 1.79999 48.8238 1.79999C48.4778 1.79999 48.1657 1.99463 48.0138 2.30049L46.2053 5.97914L42.1666 6.56861C41.8291 6.61866 41.5478 6.85223 41.4438 7.17199C41.3397 7.49175 41.4241 7.84488 41.666 8.08123L44.5966 10.948L43.9047 14.9992C43.8485 15.3329 43.9891 15.6721 44.2675 15.8695C44.546 16.0669 44.9144 16.092 45.2182 15.9335L48.8266 14.0288L52.435 15.9335C52.7388 16.092 53.1072 16.0697 53.3857 15.8695C53.6641 15.6693 53.8047 15.3329 53.7485 14.9992L53.0538 10.948L55.9844 8.08123C56.2263 7.84488 56.3135 7.49175 56.2066 7.17199C56.0997 6.85223 55.8213 6.61866 55.4838 6.56861L51.4422 5.97914L49.6338 2.30049Z" fill="#FFBC43"/>
<path d="M69.4338 2.30049C69.2847 1.99463 68.9697 1.79999 68.6238 1.79999C68.2778 1.79999 67.9657 1.99463 67.8138 2.30049L66.0053 5.97914L61.9666 6.56861C61.6291 6.61866 61.3478 6.85223 61.2438 7.17199C61.1397 7.49175 61.2241 7.84488 61.466 8.08123L64.3966 10.948L63.7047 14.9992C63.6485 15.3329 63.7891 15.6721 64.0675 15.8695C64.346 16.0669 64.7144 16.092 65.0181 15.9335L68.6266 14.0288L72.235 15.9335C72.5388 16.092 72.9072 16.0697 73.1857 15.8695C73.4641 15.6693 73.6047 15.3329 73.5485 14.9992L72.8538 10.948L75.7844 8.08123C76.0263 7.84488 76.1135 7.49175 76.0066 7.17199C75.8997 6.85223 75.6213 6.61866 75.2838 6.56861L71.2422 5.97914L69.4338 2.30049Z" fill="#FFBC43"/>
<path d="M89.2338 2.30049C89.0847 1.99463 88.7697 1.79999 88.4238 1.79999C88.0778 1.79999 87.7657 1.99463 87.6138 2.30049L85.8053 5.97914L81.7666 6.56861C81.4291 6.61866 81.1478 6.85223 81.0438 7.17199C80.9397 7.49175 81.0241 7.84488 81.266 8.08123L84.1966 10.948L83.5047 14.9992C83.4485 15.3329 83.5891 15.6721 83.8675 15.8695C84.146 16.0669 84.5144 16.092 84.8181 15.9335L88.4266 14.0288L92.035 15.9335C92.3388 16.092 92.7072 16.0697 92.9857 15.8695C93.2641 15.6693 93.4047 15.3329 93.3485 14.9992L92.6538 10.948L95.5844 8.08123C95.8263 7.84488 95.9135 7.49175 95.8066 7.17199C95.6997 6.85223 95.4213 6.61866 95.0838 6.56861L91.0422 5.97914L89.2338 2.30049Z" fill="#FFBC43"/>
</svg>
