<svg width="168" height="49" viewBox="0 0 168 49" fill="none" xmlns="http://www.w3.org/2000/svg">
<g clip-path="url(#clip0_7_53)">
<path d="M18.1947 7.86212V21.2581H5.85464V7.86212H0V39.8402H5.85623V26.8789H18.1931V39.8402H24.0509V7.86212H18.1947ZM42.7956 29.5043C42.7956 30.7861 42.2851 32.0153 41.3763 32.9216C40.4675 33.828 39.235 34.3371 37.9498 34.3371C36.6646 34.3371 35.432 33.828 34.5232 32.9216C33.6145 32.0153 33.1039 30.7861 33.1039 29.5043V15.8064H27.5488V29.5043C27.5488 32.2527 28.6436 34.8885 30.5922 36.8319C32.5408 38.7752 35.1837 39.867 37.9395 39.867C40.6952 39.867 43.3381 38.7752 45.2868 36.8319C47.2354 34.8885 48.3301 32.2527 48.3301 29.5043V15.8064H42.7956V29.5043ZM83.9572 17.218C83.9572 14.4092 85.8195 13.5193 87.8592 13.5193C89.5044 13.5193 91.6757 14.768 93.0974 16.2822L96.7347 12.005C94.9184 9.55499 91.2351 7.86212 88.219 7.86212C82.1916 7.86212 77.8331 11.3822 77.8331 17.218C77.8331 28.0454 91.102 24.6091 91.102 30.6693C91.102 32.5376 89.2825 34.1878 87.1999 34.1878C83.9144 34.1878 82.8494 32.5866 81.3405 30.8921L77.3022 35.0793C79.8856 38.2405 83.0712 39.8465 86.8861 39.8465C92.6124 39.8465 97.2181 36.2837 97.2181 30.7135C97.2181 18.6943 83.9477 22.4293 83.9477 17.218M166.046 34.7315C162.763 34.7315 161.83 33.3153 161.83 31.1466V21.5442H166.933V16.679H161.83V10.26L156.197 12.7811V32.34C156.197 37.3427 159.659 39.8639 164.404 39.8639C165.149 39.8765 165.894 39.8164 166.626 39.6868L168 34.6414C167.38 34.6841 166.669 34.7268 166.046 34.7268M63.9414 15.9661C61.19 15.9661 59.2691 16.7627 57.4116 18.5789V8.05338H51.8486V27.5633C51.8486 34.8659 57.1422 39.8702 63.0919 39.8702C69.6915 39.8702 75.497 34.7773 75.497 27.9205C75.497 21.149 70.1543 15.9708 63.9414 15.9708M63.9066 34.2858C63.0775 34.2858 62.2565 34.1229 61.4905 33.8065C60.7245 33.49 60.0285 33.0262 59.4423 32.4416C58.856 31.8569 58.391 31.1628 58.0737 30.3988C57.7564 29.6349 57.5931 28.8161 57.5931 27.9893C57.5931 27.1624 57.7564 26.3436 58.0737 25.5797C58.391 24.8158 58.856 24.1217 59.4423 23.537C60.0285 22.9523 60.7245 22.4885 61.4905 22.1721C62.2565 21.8556 63.0775 21.6928 63.9066 21.6928C65.581 21.6928 67.1869 22.3561 68.3709 23.537C69.5549 24.7178 70.22 26.3193 70.22 27.9893C70.22 29.6592 69.5549 31.2607 68.3709 32.4416C67.1869 33.6224 65.581 34.2858 63.9066 34.2858ZM124.358 27.6297C124.358 20.7602 118.565 15.68 111.953 15.68C106.005 15.68 100.71 20.6827 100.71 27.9869V47.5079H106.273V36.9681C108.127 38.7811 110.051 39.5809 112.799 39.5809C119.012 39.5809 124.358 34.4027 124.358 27.6297ZM119.09 27.5601C119.09 29.2301 118.425 30.8316 117.241 32.0124C116.057 33.1932 114.451 33.8566 112.776 33.8566C111.102 33.8566 109.496 33.1932 108.312 32.0124C107.128 30.8316 106.463 29.2301 106.463 27.5601C106.463 25.8902 107.128 24.2886 108.312 23.1078C109.496 21.927 111.102 21.2636 112.776 21.2636C114.451 21.2636 116.057 21.927 117.241 23.1078C118.425 24.2886 119.09 25.8902 119.09 27.5601Z" fill="#33475B"/>
<path d="M142.334 15.4113V9.83634C143.073 9.49203 143.698 8.94556 144.138 8.26053C144.577 7.57551 144.812 6.78011 144.816 5.96692V5.83889C144.816 3.46792 142.889 1.54586 140.511 1.54586H140.383C139.241 1.54586 138.146 1.99816 137.339 2.80326C136.532 3.60836 136.078 4.70031 136.078 5.83889V5.96692C136.082 6.78011 136.317 7.57551 136.757 8.26053C137.196 8.94556 137.822 9.49203 138.56 9.83634V15.4113C136.437 15.7355 134.438 16.6134 132.764 17.9561L117.434 6.04753C117.543 5.65395 117.6 5.24931 117.606 4.84308C117.608 3.88633 117.326 2.95051 116.794 2.15399C116.263 1.35748 115.506 0.736063 114.621 0.36834C113.735 0.000616416 112.76 -0.0968902 111.819 0.0881535C110.877 0.273197 110.012 0.732478 109.333 1.4079C108.653 2.08332 108.19 2.94455 108.001 3.88263C107.813 4.82071 107.907 5.79351 108.273 6.67798C108.639 7.56244 109.26 8.31884 110.057 8.85149C110.853 9.38414 111.791 9.66912 112.75 9.67037C113.589 9.66643 114.413 9.44297 115.139 9.02231L130.235 20.7381C128.879 22.7813 128.171 25.1846 128.205 27.6347C128.238 30.0848 129.011 32.4681 130.422 34.4739L125.83 39.0546C125.459 38.9362 125.073 38.8733 124.683 38.8681C123.895 38.8687 123.126 39.1021 122.471 39.5388C121.817 39.9755 121.307 40.5959 121.006 41.3216C120.705 42.0473 120.626 42.8457 120.78 43.6159C120.934 44.3861 121.313 45.0936 121.87 45.649C122.427 46.2043 123.136 46.5825 123.908 46.7359C124.681 46.8893 125.481 46.8109 126.209 46.5106C126.936 46.2104 127.559 45.7017 127.996 45.049C128.434 44.3963 128.668 43.6287 128.669 42.8434C128.664 42.4548 128.601 42.0691 128.482 41.699L133.024 37.1673C134.506 38.3046 136.228 39.0886 138.06 39.4594C139.892 39.8302 141.785 39.7778 143.593 39.3063C145.402 38.8349 147.078 37.9568 148.494 36.7394C149.91 35.522 151.027 33.9975 151.761 32.2828C152.495 30.5682 152.825 28.7087 152.727 26.847C152.629 24.9852 152.105 23.1706 151.195 21.5421C150.285 19.9135 149.014 18.5143 147.478 17.4517C145.942 16.389 144.182 15.691 142.334 15.4113ZM140.451 33.7468C139.612 33.7698 138.776 33.6248 137.994 33.3203C137.211 33.0158 136.498 32.5581 135.896 31.974C135.294 31.39 134.816 30.6916 134.489 29.92C134.163 29.1485 133.994 28.3194 133.994 27.4819C133.994 26.6443 134.163 25.8153 134.489 25.0437C134.816 24.2722 135.294 23.5737 135.896 22.9897C136.498 22.4057 137.211 21.9479 137.994 21.6434C138.776 21.339 139.612 21.194 140.451 21.217C142.078 21.2738 143.62 21.9582 144.751 23.1259C145.882 24.2936 146.515 25.8536 146.515 27.4772C146.516 29.1009 145.885 30.6615 144.755 31.8304C143.625 32.9992 142.085 33.6851 140.458 33.7436" fill="#FF7A59"/>
</g>
<defs>
<clipPath id="clip0_7_53">
<rect width="168" height="49" fill="white"/>
</clipPath>
</defs>
</svg>
