<svg width="218" height="30" viewBox="0 0 218 30" fill="none" xmlns="http://www.w3.org/2000/svg">
<path d="M49.622 25.7071C49.622 27.6873 48.0379 29.3074 46.0937 29.3074C44.1495 29.3074 42.5654 27.7233 42.5654 25.7071V13.2861L27.8042 28.2273C26.4361 29.6314 24.1679 29.6314 22.7998 28.2273C21.4317 26.8232 21.4317 24.555 22.7998 23.1509L43.5375 2.08912C44.1855 1.44107 45.0496 1.00903 46.0577 1.00903C48.0019 1.00903 49.586 2.59317 49.586 4.60933V25.7071H49.622Z" fill="#97C64C"/>
<path d="M22.7998 2.05309C24.1679 0.648971 26.4361 0.648971 27.8042 2.05309C29.1724 3.45721 29.1724 5.7254 27.8042 7.12951L7.0305 28.2273C5.66239 29.6314 3.3942 29.6314 2.02609 28.2273C0.657971 26.8232 0.657971 24.555 2.02609 23.1508L22.7998 2.05309Z" fill="#97C64C"/>
<path d="M74.4281 21.2787V13.07L71.3679 21.2787H69.9277L66.8315 13.07V21.2787H63.6992V8.85763H68.0916L70.6478 15.6982L73.204 8.85763H77.5964V21.2787H74.4281ZM79.1445 15.0862C79.1445 11.3058 81.9527 8.67761 85.6611 8.67761C89.4054 8.67761 92.1776 11.3418 92.1776 15.0862C92.1776 18.8665 89.4054 21.4947 85.6611 21.4947C81.9527 21.5307 79.1445 18.8665 79.1445 15.0862ZM89.0093 15.0862C89.0093 13.034 87.7132 11.4859 85.6971 11.4859C83.6809 11.4859 82.3488 13.07 82.3488 15.0862C82.3488 17.1023 83.6809 18.6865 85.6971 18.6865C87.6772 18.6865 89.0093 17.1023 89.0093 15.0862ZM92.3936 20.3786L93.7257 17.9304C94.1578 18.2904 94.7338 18.6504 95.4899 18.6504C96.498 18.6504 97.11 18.0024 97.11 16.9583V8.82162H100.242V16.9943C100.242 20.0546 98.4061 21.4947 95.7419 21.4947C94.5178 21.5307 93.2937 21.2067 92.3936 20.3786ZM101.826 15.0862C101.826 11.3058 104.635 8.67761 108.379 8.67761C112.123 8.67761 114.895 11.3418 114.895 15.0862C114.895 18.8665 112.123 21.4947 108.379 21.4947C104.635 21.5307 101.826 18.8665 101.826 15.0862ZM111.691 15.0862C111.691 13.034 110.395 11.4859 108.379 11.4859C106.363 11.4859 105.031 13.07 105.031 15.0862C105.031 17.1023 106.363 18.6865 108.379 18.6865C110.395 18.6865 111.691 17.1023 111.691 15.0862ZM132.033 21.2787V10.2257L127.605 21.3147H127.173L122.708 10.2257V21.3147H121.664V8.89363H123.212L127.389 19.2265L131.565 8.89363H133.149V21.3147H132.033V21.2787ZM141.754 21.2787V20.2346C140.962 21.1347 139.99 21.4947 138.765 21.4947C137.253 21.4947 135.669 20.4506 135.669 18.5064C135.669 16.5263 137.217 15.5182 138.765 15.5182C139.99 15.5182 140.998 15.9502 141.754 16.8143V14.9781C141.754 13.61 140.674 12.926 139.378 12.926C138.261 12.926 137.397 13.322 136.605 14.2581L136.065 13.61C137.001 12.6019 138.009 12.0979 139.486 12.0979C141.286 12.0979 142.69 12.998 142.69 14.9781V21.3147L141.754 21.2787ZM141.754 19.5145V17.5344C141.142 16.7063 140.134 16.2742 139.054 16.2742C137.613 16.2742 136.641 17.2463 136.641 18.5064C136.641 19.7665 137.613 20.7026 139.054 20.7026C140.134 20.7386 141.142 20.3426 141.754 19.5145ZM145.678 21.2787V12.2779H146.614V13.826C147.37 12.818 148.378 12.0979 149.602 12.0979V13.142C149.422 13.106 149.314 13.106 149.134 13.106C148.234 13.106 147.046 13.9341 146.614 14.6901V21.2427H145.678V21.2787ZM157.631 21.2787L154.103 16.9943L152.447 18.5784V21.2787H151.511V8.85763H152.447V17.4263L157.631 12.2779H158.927L154.823 16.3463L158.927 21.2787H157.631ZM160.223 16.7783C160.223 14.1861 162.023 12.0619 164.472 12.0619C167.172 12.0619 168.648 14.2221 168.648 16.8143V17.1023H161.231C161.339 19.0825 162.599 20.6666 164.688 20.6666C165.804 20.6666 166.848 20.2346 167.604 19.4065L168.072 20.0546C167.208 20.9906 166.056 21.4947 164.616 21.4947C162.059 21.5307 160.223 19.5505 160.223 16.7783ZM164.436 12.89C162.347 12.89 161.303 14.7621 161.231 16.3103H167.676C167.64 14.7981 166.668 12.89 164.436 12.89ZM171.276 19.5505V13.142H169.8V12.2779H171.276V9.82971H172.248V12.2779H174.048V13.142H172.248V19.4065C172.248 20.1266 172.536 20.6306 173.184 20.6306C173.58 20.6306 173.976 20.4506 174.192 20.1986L174.552 20.9546C174.228 21.3147 173.76 21.5307 173.04 21.5307C171.852 21.5307 171.276 20.7746 171.276 19.5505ZM177.109 19.8385V24.735H176.137V12.3139H177.073V13.754C177.685 12.854 178.837 12.0979 180.133 12.0979C182.509 12.0979 184.093 13.9341 184.093 16.8143C184.093 19.6945 182.509 21.5307 180.133 21.5307C178.945 21.5307 177.829 20.8466 177.109 19.8385ZM183.121 16.7783C183.121 14.5821 182.005 12.962 180.025 12.962C178.801 12.962 177.649 13.682 177.109 14.5461V19.0105C177.613 19.8746 178.801 20.6666 180.025 20.6666C181.969 20.6306 183.121 18.9745 183.121 16.7783ZM186.541 21.2787V8.85763H187.478V21.2787H186.541ZM196.082 21.2787V20.2346C195.29 21.1347 194.318 21.4947 193.094 21.4947C191.582 21.4947 189.998 20.4506 189.998 18.5064C189.998 16.5263 191.546 15.5182 193.094 15.5182C194.318 15.5182 195.326 15.9502 196.082 16.8143V14.9781C196.082 13.61 195.002 12.926 193.706 12.926C192.59 12.926 191.726 13.322 190.934 14.2581L190.394 13.61C191.33 12.6019 192.338 12.0979 193.814 12.0979C195.614 12.0979 197.018 12.998 197.018 14.9781V21.3147L196.082 21.2787ZM196.082 19.5145V17.5344C195.47 16.7063 194.462 16.2742 193.382 16.2742C191.942 16.2742 190.97 17.2463 190.97 18.5064C190.97 19.7665 191.942 20.7026 193.382 20.7026C194.462 20.7386 195.47 20.3426 196.082 19.5145ZM199.503 16.7783C199.503 14.1501 201.195 12.0619 203.787 12.0619C205.335 12.0619 206.199 12.6739 206.919 13.574L206.271 14.1501C205.623 13.25 204.831 12.89 203.859 12.89C201.771 12.89 200.511 14.5461 200.511 16.7063C200.511 18.8665 201.771 20.5586 203.859 20.5586C204.831 20.5586 205.623 20.1986 206.271 19.2985L206.919 19.8745C206.199 20.8106 205.335 21.4227 203.787 21.4227C201.195 21.5307 199.503 19.4065 199.503 16.7783ZM208.575 16.7783C208.575 14.1861 210.375 12.0619 212.824 12.0619C215.524 12.0619 217 14.2221 217 16.8143V17.1023H209.619C209.727 19.0825 210.988 20.6666 213.076 20.6666C214.192 20.6666 215.236 20.2346 215.992 19.4065L216.46 20.0546C215.596 20.9906 214.444 21.4947 213.004 21.4947C210.411 21.5307 208.575 19.5505 208.575 16.7783ZM212.824 12.89C210.735 12.89 209.691 14.7621 209.619 16.3103H216.064C215.992 14.7981 215.02 12.89 212.824 12.89Z" fill="black"/>
</svg>
