<svg width="188" height="44" viewBox="0 0 188 44" fill="none" xmlns="http://www.w3.org/2000/svg">
<path fill-rule="evenodd" clip-rule="evenodd" d="M44.6595 1.12622L15.2542 25.8525L0.0297852 7.78681L44.6595 1.12622Z" fill="#335EEA"/>
<path fill-rule="evenodd" clip-rule="evenodd" d="M44.3167 0.840881L14.8331 25.4741L30.0575 43.5399L44.3167 0.840881Z" fill="#BECCF9"/>
<path fill-rule="evenodd" clip-rule="evenodd" d="M105.286 23.122C105.286 19.0892 102.373 16.7899 99.1039 16.7899C95.8354 16.7899 94.3433 19.2309 94.3433 19.2309V7.23877H90.0799V33.982H94.3433V22.9451C94.3433 22.9451 95.4801 20.7519 97.6829 20.7519C99.5302 20.7519 101.022 21.7778 101.022 24.1832V33.982H105.286V23.122ZM76.9265 33.982V13.2525H70.0697V9.21975H88.0466V13.2525H81.1899V33.982H76.9265ZM70.381 23.0512C70.381 19.2308 67.5389 16.7899 62.7071 16.7899C59.19 16.7899 56.0636 18.3111 56.0636 18.3111L57.449 21.8131C57.449 21.8131 60.0426 20.5751 62.494 20.5751C63.9862 20.5751 66.1179 21.2824 66.1179 23.4757V24.4308C66.1179 24.4308 64.519 23.2281 61.4282 23.2281C57.7688 23.2281 54.8201 25.5628 54.8201 28.7819C54.8201 32.3549 57.7334 34.4065 60.8952 34.4065C64.6967 34.4065 66.4376 31.8595 66.4376 31.8595V33.982H70.381V23.0512ZM66.1179 28.9234C66.1179 28.9234 64.7678 30.869 62.2098 30.869C60.8954 30.869 59.1544 30.48 59.1544 28.7112C59.1544 26.9072 60.9663 26.3411 62.281 26.3411C64.5901 26.3411 66.1179 27.1901 66.1179 27.1901V28.9234ZM115.774 16.7899C120.393 16.7899 124.265 20.3628 124.265 25.5274C124.265 25.8459 124.265 26.4826 124.23 27.1194H111.653C111.973 28.6051 113.714 30.5153 116.378 30.5153C119.327 30.5153 120.997 28.8173 120.997 28.8173L123.129 32.001C123.129 32.001 120.464 34.4065 116.378 34.4065C111.262 34.4065 107.319 30.5153 107.319 25.5982C107.319 20.6812 110.907 16.7899 115.774 16.7899ZM120.002 24.0417H111.653C111.795 22.5561 113.039 20.6458 115.774 20.6458C118.581 20.6458 119.931 22.5914 120.002 24.0417ZM140.474 19.726C140.479 19.7162 141.902 16.7899 145.839 16.7899C149.249 16.7899 151.736 19.1601 151.736 23.1927V33.982H147.473V24.2893C147.473 21.99 146.585 20.7519 144.453 20.7519C142.215 20.7519 141.149 22.9098 141.149 22.9098V33.982H136.886V24.2893C136.886 21.99 135.998 20.7519 133.866 20.7519C131.628 20.7519 130.562 22.9098 130.562 22.9098V33.982H126.299V17.2145H130.278V19.6553C130.278 19.6553 131.805 16.7899 135.252 16.7899C139.296 16.7899 140.471 19.7179 140.474 19.726ZM170.716 25.5274C170.716 20.3628 166.844 16.7899 162.225 16.7899C157.358 16.7899 153.77 20.6812 153.77 25.5982C153.77 30.5153 157.713 34.4065 162.829 34.4065C166.915 34.4065 169.579 32.001 169.579 32.001L167.448 28.8173C167.448 28.8173 165.778 30.5153 162.829 30.5153C160.165 30.5153 158.424 28.6051 158.104 27.1194H170.68C170.716 26.4826 170.716 25.8459 170.716 25.5274ZM158.104 24.0417H166.453C166.382 22.5914 165.032 20.6458 162.225 20.6458C159.49 20.6458 158.246 22.5561 158.104 24.0417ZM174.064 28.2867L171.685 31.3644C171.685 31.3644 174.349 34.4065 179.286 34.4065C183.586 34.4065 186.642 32.1071 186.642 29.2419C186.642 25.7752 184.26 24.6786 180.92 23.971C178.078 23.3696 176.942 23.122 176.942 22.0961C176.942 21.0702 178.398 20.5043 179.997 20.5043C182.272 20.5043 184.189 21.9546 184.189 21.9546L186.322 18.8416C186.322 18.8416 183.8 16.7899 179.997 16.7899C175.379 16.7899 172.75 19.4077 172.75 22.0254C172.75 25.2091 175.663 26.624 179.003 27.3316C181.561 27.8621 182.341 28.0745 182.341 29.1711C182.341 30.197 180.885 30.6922 179.145 30.6922C176.302 30.6922 174.064 28.2867 174.064 28.2867Z" fill="#131A2B"/>
</svg>
